<svg xmlns="http://www.w3.org/2000/svg" viewBox="0 0 640 400">
  <defs>
    <linearGradient id="bg5" x1="0" y1="0" x2="1" y2="1">
      <stop offset="0%" stop-color="#1e293b"/>
      <stop offset="100%" stop-color="#7c3aed"/>
    </linearGradient>
  </defs>
  <rect width="640" height="400" rx="32" fill="url(#bg5)"/>
  <rect x="110" y="72" width="420" height="256" rx="30" fill="rgba(255,255,255,0.08)"/>
  <rect x="160" y="96" width="160" height="208" rx="34" fill="#0f172a"/>
  <rect x="190" y="128" width="100" height="30" rx="14" fill="#7c3aed"/>
  <rect x="190" y="172" width="100" height="24" rx="12" fill="#c4b5fd"/>
  <rect x="190" y="206" width="100" height="24" rx="12" fill="#60a5fa"/>
  <rect x="190" y="240" width="100" height="24" rx="12" fill="#34d399"/>
  <rect x="190" y="284" width="100" height="14" rx="7" fill="#e2e8f0" opacity="0.9"/>
  <circle cx="240" cy="322" r="8" fill="#e2e8f0"/>
  <rect x="340" y="112" width="140" height="160" rx="24" fill="#8b5cf6" opacity="0.95"/>
  <rect x="360" y="138" width="100" height="18" rx="9" fill="#c7d2fe"/>
  <rect x="360" y="170" width="100" height="18" rx="9" fill="#a78bfa"/>
  <rect x="360" y="202" width="100" height="18" rx="9" fill="#d8b4fe"/>
  <rect x="360" y="234" width="100" height="18" rx="9" fill="#f5f3ff"/>
  <text x="430" y="86" fill="#f8fafc" font-size="44" font-weight="700" text-anchor="middle" font-family="Inter, sans-serif">Mobile</text>
  <text x="430" y="126" fill="#c7d2fe" font-size="22" font-weight="600" text-anchor="middle" font-family="Inter, sans-serif">App UI</text>
</svg>
